<svg xmlns="http://www.w3.org/2000/svg" width="176" height="87" viewBox="0 0 38 35" fill="none">
<path d="M0 33.4611H5.46576V33.2211H2.93285C3.14614 32.6879 6.71888 22.7162 6.71888 22.7162H17.0905C17.0905 22.7162 20.6366 32.5813 20.8765 33.2211H17.4904V33.4611H26.5556L14.6109 0L2.66622 33.2211H0V33.4611ZM6.77221 22.4763L11.8914 8.26529L17.0105 22.4763H6.77221Z" fill="#212121"/>
<path d="M26.529 33.4613H34.4743C43.6461 33.4613 51.0849 28.0488 51.0849 17.0373C51.0849 6.18579 43.9927 0.560059 34.3677 0.560059H23.1162V0.800017H26.5023C26.529 0.800017 26.529 33.4613 26.529 33.4613ZM31.7814 33.248V0.826681H33.8344C36.234 0.826681 38.2337 0.959991 39.7268 1.67987C43.7528 3.59955 45.1392 8.55873 45.1392 17.0373C45.1392 25.0893 43.1129 29.8619 39.8068 32.0215C38.287 32.9813 36.154 33.2213 34.2877 33.2213C34.2877 33.248 31.7814 33.248 31.7814 33.248Z" fill="#212121"/>
</svg>
