<svg width="138" height="43" style="width:250px; height:78px;" viewBox="0 0 138 43" fill="none" xmlns="http://www.w3.org/2000/svg">
<path d="M23.0335 9.15976L23.0027 9.35955C22.388 12.7714 21.1738 14.6464 19.1759 15.4917C18.6995 15.6915 18.1769 15.799 17.6544 15.799C14.9188 15.799 13.5971 13.2171 13.136 12.3718C12.6903 11.5573 12.2753 10.6198 11.8297 9.62082C10.6924 7.0235 8.92497 3.88829 7.08072 3.88829C6.60429 3.88829 5.9588 3.96513 5.31332 4.31861C4.02234 5.02557 4.02234 5.70179 4.00697 5.94769C3.73034 8.17616 5.68217 10.297 8.38706 12.8021L9.38603 13.7089C10.9536 15.1228 12.6442 16.7365 13.7969 18.673C14.4884 19.8564 14.9649 21.0398 15.0417 22.2385C15.1339 23.6217 14.719 24.9895 13.9813 26.3266C13.5048 27.1873 12.9516 27.8789 12.3061 28.6473C10.4618 30.7374 9.80098 32.551 10.5233 34.18C10.9075 35.0407 11.7682 35.763 12.5827 35.9013C12.9208 35.9628 13.2589 35.9936 13.5817 35.9936C15.9792 35.9936 17.1165 34.4106 17.639 30.0151C17.8542 28.1862 18.7763 26.2805 19.6216 24.7744C20.7589 22.7303 22.4033 21.8236 24.5242 21.6545L24.9853 21.6392C26.4914 21.6238 27.9361 22.2693 28.9197 23.4066C29.7035 24.298 30.2107 25.3123 30.4873 26.7108C30.7178 27.8328 30.6563 29.1852 30.518 30.3225L30.3643 31.4137C30.0877 33.304 29.6881 36.47 30.5949 37.6073C30.7025 37.7302 30.9637 38.053 31.8858 38.1298L32.2393 38.1452C33.561 38.1452 34.1143 37.4997 34.4371 37.1616C35.3131 36.1933 35.851 34.2569 35.5743 31.5366C35.5282 31.0602 35.4053 30.3686 35.267 29.6463C34.9596 27.9557 34.56 25.8348 34.6061 23.8523C34.683 21.0552 35.4207 19.3031 37.2034 18.2427C37.7874 17.9046 38.4637 17.7201 39.1399 17.7201C40.477 17.6894 41.7526 18.2734 42.6132 19.3031C43.3663 20.1791 43.8888 21.1627 44.1347 21.6853C44.5189 22.4998 44.7187 23.3144 44.9954 24.0982C45.5333 25.6043 45.979 27.0182 46.9626 27.9403C47.6081 28.5397 48.2843 28.7856 48.8683 28.7856C49.3908 28.7856 50.0363 28.4782 50.482 27.9557C51.3273 27.0028 51.7115 25.7887 51.6193 24.3594C51.4963 22.4537 50.7125 20.3636 49.3293 19.1341C48.6531 18.5501 47.4544 18.1351 46.4861 17.5818C45.0876 16.7826 43.9349 16.1218 42.8899 14.8923C41.522 13.2939 41.1532 11.2038 41.7987 9.00607L41.8909 8.69869C42.4903 6.63929 42.6132 5.73253 42.0138 5.16389C41.7526 4.90262 41.1225 4.87188 41.0456 4.87188C40.6921 4.87188 40.2464 5.04094 39.8776 5.47126C39.5241 5.87085 39.186 6.4856 38.8171 7.13109C38.31 8.03784 37.7413 9.03681 36.9422 9.86672C35.8663 10.9886 34.683 11.6495 33.2229 11.6802H33.1153C30.7332 11.6802 29.3654 10.0358 28.8121 9.45177C28.3664 8.97534 27.7978 8.17616 27.3674 7.48457C26.9217 6.77761 26.3992 5.97843 25.892 5.40979C24.3859 3.70386 23.5099 6.47023 23.0181 9.28271L23.0335 9.15976ZM19.3603 8.59112L19.3911 8.40669C19.7753 6.2397 20.1595 2.88932 22.5878 1.44466C23.4177 0.95286 24.263 0.768436 25.1236 0.768436C27.9976 0.768436 29.8572 3.62702 31.0252 5.39442C31.6707 6.39339 32.2086 7.60752 33.0846 7.60752H33.1C33.8838 7.59215 34.4524 6.94666 35.4821 5.16389C35.9432 4.34935 36.4811 3.58091 37.0958 2.85858C38.2485 1.5215 39.4012 1.09118 40.938 1.09118C42.1522 1.09118 43.7044 1.53687 44.6419 2.41289C45.7945 3.4887 46.2249 4.90262 46.1788 6.62392C46.1327 7.86878 45.7792 8.77554 45.4718 9.83598L45.3796 10.1434C45.0415 11.2806 45.3489 12.2489 45.6716 12.6177C46.2556 13.3093 47.3468 13.9087 48.4841 14.5542C49.5752 15.1689 50.7125 15.4302 51.7115 16.2908C53.9092 18.2119 55.277 21.132 55.4768 24.0982C55.6305 26.6033 55.0926 28.6627 53.525 30.4147C52.2648 31.8286 50.6972 32.5817 49.0066 32.5817C47.3622 32.5817 45.856 31.9823 44.4421 30.6452C42.7669 29.0623 42.1368 27.1873 41.522 25.4352L40.7536 23.3912C40.3079 22.4691 40.0005 21.6238 39.3243 21.6238C38.6481 21.6238 38.602 23.1146 38.5866 23.9291C38.5405 25.4967 38.9555 27.3871 39.2321 28.9086L39.5856 31.1063C40.2464 37.6995 37.1266 42.0642 32.4545 42.0642C32.2547 42.0642 32.0549 42.0642 31.8551 42.0488C29.6266 41.9259 28.3203 40.9115 27.6441 40.0816C25.6 37.5765 26.1994 33.6268 26.6144 30.7528L26.7373 29.7385C26.9217 28.2785 26.5836 26.7262 25.9689 26.0039C25.7537 25.7272 25.4156 25.5889 25.0621 25.6043C25.016 25.6043 24.9545 25.6043 24.9084 25.6043C23.3562 25.7272 22.7568 27.341 21.8193 30.9372C21.2968 32.9659 20.8511 35.1483 19.7753 36.8696C18.3767 39.1134 16.2559 40.1585 13.6432 40.1585C13.0745 40.1585 12.5212 40.1124 11.968 40.0202C10.8614 39.8357 9.77025 39.3286 8.80202 38.5294C7.91063 37.7917 7.17293 36.8388 6.74261 35.8552C5.97417 34.1032 5.97417 31.8901 6.6965 30.0151C7.28051 28.5551 7.94137 27.7867 8.78665 26.634C9.32455 25.9117 10.0315 25.0664 10.3696 24.4363C11.0612 23.176 11.2149 22.0849 10.4465 20.7785C9.61656 19.3646 8.07969 17.9814 6.72724 16.7673L5.68217 15.799C2.68526 13.0019 -0.465325 9.85135 0.0572118 5.68643C0.226268 4.33398 0.871754 2.22846 3.42296 0.82991C4.66783 0.153686 5.86659 0 7.03461 0C9.10939 0 10.9229 0.860647 12.4598 2.96616C13.5817 4.50303 14.4423 6.39339 15.1493 8.06858C16.2097 10.5891 18.0847 16.2908 19.4064 8.62185" fill="#212121"/>
<path d="M113.447 24.4516C113.324 24.1903 113.447 24.0059 113.755 24.0059H114.8C114.969 24.0059 115.076 24.1135 115.153 24.2364L118.027 30.4761H118.042L120.747 24.2364C120.809 24.0981 120.947 24.0212 121.101 24.0059H122.023C122.33 24.0059 122.469 24.2057 122.33 24.4823L117.335 35.0406C117.274 35.1636 117.136 35.3019 116.982 35.3019H116.229C115.922 35.3019 115.752 35.0714 115.906 34.7947L117.259 32.182L113.447 24.4516ZM99.2925 30.9064C100.322 30.9064 101.183 30.4146 101.536 29.9075V28.386C101.275 28.1401 100.553 27.7558 99.646 27.7558C98.5088 27.7558 97.7249 28.2476 97.7249 29.3081C97.7249 30.1226 98.4165 30.9064 99.2925 30.9064ZM99.8151 26.6032C100.691 26.6032 101.552 27.1565 101.552 27.1565C101.567 25.6503 100.952 24.9587 99.7997 24.9587C98.6778 24.9587 98.1553 25.2661 97.7864 25.4044C97.5866 25.4813 97.4637 25.3891 97.4022 25.2046L97.2331 24.6975C97.1563 24.4362 97.2793 24.3286 97.4637 24.2518C97.5866 24.1903 98.3397 23.7139 99.8612 23.7139C101.936 23.7139 102.889 24.7743 102.889 27.1565V31.6902C102.889 31.9054 102.72 32.0745 102.505 32.0745H101.982C101.752 32.0745 101.705 31.9515 101.629 31.7671L101.613 31.2138C101.183 31.6441 100.353 32.1359 99.0774 32.1359C97.6481 32.1359 96.4186 30.9525 96.4186 29.3235C96.4186 27.7712 97.7249 26.6186 99.8151 26.6032ZM87.4894 27.2487H83.0017C82.8787 27.2487 82.8788 27.1411 82.8788 27.1104C83.0785 25.927 84.0929 25.0509 85.3992 25.0509C86.5672 25.0509 87.5047 26.0038 87.6431 27.1104C87.6431 27.1565 87.6277 27.264 87.5201 27.264L87.4894 27.2487ZM85.3839 23.8214C82.9402 23.8214 81.4341 25.7733 81.4341 28.0478C81.4341 30.3685 82.9402 32.2742 85.3839 32.2742C86.767 32.2742 87.8582 31.7363 88.3346 31.3521C88.642 31.137 88.5498 31.014 88.4115 30.8296L88.0734 30.3685C87.9197 30.1534 87.7967 30.2456 87.5047 30.4146C87.0437 30.6913 86.3367 31.014 85.5068 31.014C84.139 31.014 82.9863 29.846 82.8326 28.5704C82.8326 28.4474 82.9402 28.4013 82.9402 28.4013H88.6113C88.7957 28.4013 88.9494 28.2784 88.9801 28.0632C88.9955 27.8788 89.0109 27.7097 89.0262 27.5253C89.0262 25.4044 87.5047 23.8214 85.3839 23.8214ZM70.8297 30.5991C70.7221 30.4454 70.6452 30.3224 70.3532 30.4761C70.3532 30.4761 69.8922 30.9679 69.1084 30.9679C68.3246 30.9679 68.2016 30.015 68.2016 29.9536V25.512C68.217 25.4198 68.2477 25.2661 68.4629 25.2507H70.5377C70.7528 25.2507 70.9219 25.0663 70.9219 24.8665V24.4055C70.9219 24.1903 70.7682 24.0212 70.5377 24.0212H68.509C68.3553 24.0366 68.2324 23.929 68.2016 23.7907C68.2016 23.7753 68.2016 23.7753 68.2016 23.76V21.6237C68.2016 21.4239 68.0479 21.2395 67.8481 21.2395H67.2334C67.0336 21.2395 66.8338 21.4239 66.8338 21.6237V23.7292C66.8338 23.7292 66.8184 23.9751 66.5725 23.9905H65.7887C65.5736 23.9905 65.4045 24.1442 65.4045 24.3747V24.8204C65.4045 25.0202 65.5582 25.2046 65.7887 25.2046H66.5879C66.7723 25.2354 66.8031 25.3891 66.8184 25.4659V30.0611C66.8184 31.306 67.5408 32.2742 69.1391 32.2742C70.092 32.2742 70.6914 31.7517 70.9834 31.5827C71.1985 31.4597 71.26 31.3214 71.1063 31.0601L70.7989 30.5376L70.8297 30.5991ZM76.6391 23.8214C75.4557 23.8214 74.7333 24.3901 74.426 24.6975C74.426 24.6975 74.2569 24.8665 74.2569 24.6053V20.7784C74.2569 20.5786 74.0725 20.3942 73.8727 20.3942H73.2426C73.0428 20.3942 72.8583 20.5786 72.8583 20.7784V31.6902C72.8583 31.89 73.0428 32.0745 73.2426 32.0745H73.8727C74.0725 32.0745 74.2569 31.89 74.2569 31.6902V27.2794C74.2569 25.7733 75.3788 25.3276 76.1011 25.2046C76.2548 25.1739 76.3931 25.1739 76.5468 25.1739C77.6688 25.1739 78.6677 25.9116 78.6677 27.4485V31.6902C78.6677 31.89 78.8521 32.0745 79.0519 32.0745H79.6974C79.8972 32.0745 80.0816 31.89 80.0816 31.6902V27.4485C80.0663 25.097 78.6524 23.8368 76.6391 23.8214ZM108.529 30.9372C107.407 30.9372 106.547 30.2302 106.547 30.2302V26.0192C106.547 26.0192 107.3 25.0202 108.621 25.0202C110.25 25.0202 111.188 26.4341 111.188 28.0171C111.203 29.6462 110.112 30.9372 108.529 30.9372ZM108.79 23.7292C107.976 23.7292 107.192 23.9905 106.547 24.4823V24.4208C106.547 24.2057 106.378 24.0366 106.162 24.0366H105.517C105.317 24.0366 105.133 24.221 105.133 24.4208V34.9177C105.133 35.1328 105.302 35.3019 105.517 35.3019H106.162C106.378 35.3019 106.547 35.1328 106.547 34.9177V31.6288C106.547 31.6288 107.392 32.305 108.729 32.305C110.973 32.305 112.648 30.43 112.648 28.0478C112.648 25.6811 111.019 23.7292 108.79 23.7292ZM94.3592 23.7292C93.0528 23.7292 92.2998 24.3747 92.0385 24.6667V24.4055C92.0385 24.1903 91.8695 24.0212 91.6543 24.0212H91.0088C90.7936 24.0212 90.6246 24.1903 90.6246 24.4055V31.6902C90.6246 31.9054 90.7936 32.0745 91.0088 32.0745H91.6543C91.8541 32.0745 92.0385 31.89 92.0385 31.6902V26.2497C92.0385 26.2497 92.7147 25.1124 94.267 25.1124C94.5436 25.1124 94.8049 25.1739 95.0661 25.2815C95.2659 25.3583 95.4504 25.3583 95.558 25.0971L95.8192 24.4055C96.019 23.8214 94.9893 23.7139 94.3592 23.7292ZM121.162 12.6945H116.675C116.552 12.6945 116.552 12.5869 116.552 12.5562C116.751 11.3728 117.766 10.4968 119.072 10.4968C120.24 10.4968 121.178 11.4496 121.316 12.5562C121.316 12.6023 121.301 12.7099 121.193 12.7099L121.162 12.6945ZM119.057 9.26726C116.613 9.26726 115.107 11.2191 115.107 13.4937C115.107 15.8143 116.613 17.7201 119.057 17.7201C120.44 17.7201 121.531 17.1822 122.008 16.7979C122.315 16.5828 122.223 16.4598 122.084 16.2754L121.746 15.8143C121.593 15.5992 121.47 15.6914 121.178 15.8604C120.717 16.1371 120.01 16.4598 119.18 16.4598C117.812 16.4598 116.659 15.2918 116.506 14.0162C116.506 13.8932 116.613 13.8471 116.613 13.8471H122.284C122.469 13.8471 122.622 13.7242 122.638 13.509C122.668 13.3246 122.668 13.1402 122.684 12.9711C122.699 10.8349 121.162 9.26726 119.057 9.26726ZM137.653 16.0295C137.545 15.8758 137.468 15.7529 137.176 15.9066C137.176 15.9066 136.715 16.3984 135.932 16.3984C135.148 16.3984 135.025 15.4455 135.025 15.3686V10.9271C135.04 10.8349 135.071 10.6812 135.286 10.6658H137.346C137.561 10.6658 137.73 10.4814 137.73 10.2816V9.83591C137.73 9.62075 137.561 9.45169 137.346 9.45169H135.317C135.163 9.46706 135.04 9.35948 135.009 9.22116C135.009 9.20579 135.009 9.20579 135.009 9.19042V7.0849C135.009 6.88511 134.856 6.70068 134.656 6.70068H134.041C133.841 6.70068 133.642 6.88511 133.642 7.0849V9.19042C133.642 9.19042 133.626 9.43632 133.38 9.45169H132.597C132.381 9.45169 132.212 9.60538 132.212 9.83591V10.2816C132.212 10.4814 132.366 10.6658 132.597 10.6658H133.396C133.58 10.6966 133.611 10.8502 133.626 10.9271V15.5223C133.626 16.7672 134.349 17.7354 135.947 17.7354C136.9 17.7354 137.499 17.2129 137.791 17.0438C138.006 16.9209 138.068 16.7826 137.914 16.5213L137.607 15.9988L137.653 16.0295ZM127.94 9.26726C126.756 9.26726 126.034 9.83591 125.727 10.1433C125.727 10.1433 125.558 10.3123 125.558 10.0511V9.85127C125.558 9.65148 125.373 9.46705 125.173 9.46705H124.543C124.344 9.46705 124.159 9.65148 124.159 9.85127V17.1514C124.159 17.3512 124.344 17.5356 124.543 17.5356H125.173C125.373 17.5356 125.558 17.3512 125.558 17.1514V12.7252C125.558 11.2191 126.68 10.7888 127.402 10.6504C127.556 10.6197 127.694 10.6197 127.848 10.6197C128.97 10.6197 129.969 11.3574 129.969 12.8943V17.1361C129.969 17.3358 130.153 17.5203 130.353 17.5203H130.998C131.198 17.5203 131.382 17.3358 131.382 17.1361V12.8943C131.367 10.5429 129.953 9.28263 127.94 9.26726ZM64.2365 16.383C65.2662 16.383 66.1268 15.8912 66.4803 15.384V13.8625C66.2191 13.6166 65.4967 13.2324 64.59 13.2324C63.4527 13.2324 62.6689 13.7242 62.6689 14.7846C62.6689 15.5992 63.3605 16.383 64.2365 16.383ZM64.759 12.0644C65.635 12.0644 66.4957 12.6176 66.4957 12.6176C66.5111 11.1115 65.8963 10.4199 64.7437 10.4199C63.6217 10.4199 63.0992 10.7273 62.7304 10.8656C62.5306 10.9425 62.4076 10.8502 62.3461 10.6658L62.1771 10.1586C62.1002 9.89738 62.2232 9.7898 62.4076 9.71295C62.5306 9.65148 63.2836 9.17505 64.8051 9.17505C66.8799 9.17505 67.8328 10.2355 67.8328 12.6176V17.0899C67.8328 17.3051 67.6637 17.4742 67.4485 17.4742H66.9106C66.6801 17.4742 66.634 17.3512 66.5572 17.1668L66.5418 16.6135C66.1115 17.0438 65.2816 17.5356 64.006 17.5356C62.5767 17.5356 61.3472 16.3522 61.3472 14.7232C61.3472 13.1709 62.6535 12.0029 64.759 12.0029V12.0644ZM81.388 16.3369C82.4177 16.3369 83.2783 15.8451 83.6318 15.3379V13.8164C83.3706 13.5705 82.6482 13.1863 81.7415 13.1863C80.6042 13.1863 79.8204 13.6781 79.8204 14.7385C79.8204 15.5531 80.512 16.3369 81.388 16.3369ZM81.9259 12.0336C82.8019 12.0336 83.6626 12.5869 83.6626 12.5869C83.6779 11.0808 83.0632 10.3892 81.9105 10.3892C80.7886 10.3892 80.2661 10.6966 79.8972 10.8349C79.6974 10.9117 79.5745 10.8195 79.513 10.6351L79.3439 10.1279C79.2671 9.86664 79.39 9.75906 79.5745 9.68222C79.6974 9.62075 80.4505 9.14431 81.9874 9.14431C84.0621 9.14431 85.015 10.2048 85.015 12.5869V17.1053C85.015 17.3205 84.846 17.4895 84.6308 17.4895H84.0621C83.8316 17.4895 83.7855 17.3666 83.7087 17.1822L83.6933 16.6289C83.263 17.0592 82.4331 17.551 81.1575 17.551C79.7282 17.551 78.4987 16.3676 78.4987 14.7385C78.514 13.2017 79.8204 12.0336 81.9259 12.0336ZM98.6317 16.0141C98.5241 15.8604 98.4473 15.7375 98.1553 15.8912C98.1553 15.8912 97.6942 16.383 96.9104 16.383C96.1266 16.383 96.0036 15.4301 96.0036 15.3533V10.9271C96.0036 10.8349 96.0498 10.6812 96.2649 10.6658H98.3243C98.5395 10.6658 98.7085 10.4814 98.7085 10.2816V9.83591C98.7085 9.62075 98.5549 9.45169 98.3243 9.45169H96.2803C96.1266 9.46706 96.0036 9.35948 95.9729 9.22116C95.9729 9.20579 95.9729 9.20579 95.9729 9.19042V7.0849C95.9729 6.88511 95.8192 6.70068 95.6194 6.70068H95.0047C94.8049 6.70068 94.6051 6.88511 94.6051 7.0849V9.19042C94.6051 9.19042 94.5897 9.43632 94.3438 9.45169H93.56C93.3449 9.45169 93.1758 9.60538 93.1758 9.83591V10.2816C93.1758 10.4814 93.3295 10.6658 93.56 10.6658H94.3592C94.5436 10.6966 94.5744 10.8502 94.5897 10.9271V15.4916C94.5897 16.7365 95.312 17.7047 96.9104 17.7047C97.8633 17.7047 98.4626 17.1822 98.7546 17.0131C98.9698 16.8902 99.0313 16.7518 98.8776 16.4906L98.5702 15.968L98.6317 16.0141ZM73.2426 16.3369C72.1206 16.3369 71.26 15.6299 71.26 15.6299V11.4189C71.26 11.4189 72.0131 10.4199 73.3348 10.4199C74.9639 10.4199 75.9014 11.8338 75.9014 13.4168C75.9167 15.0459 74.8102 16.3369 73.2426 16.3369ZM73.5038 9.12895C72.6893 9.12895 71.9055 9.39021 71.26 9.88201V9.82054C71.26 9.60538 71.0909 9.43632 70.8758 9.43632H70.2303C70.0305 9.43632 69.8461 9.62074 69.8461 9.82054V20.3174C69.8461 20.5325 70.0151 20.7016 70.2303 20.7016H70.8758C71.0909 20.7016 71.26 20.5325 71.26 20.3174V17.0285C71.26 17.0285 72.1053 17.7047 73.4424 17.7047C75.6862 17.7047 77.3614 15.8297 77.3614 13.4322C77.3614 11.0961 75.7323 9.12895 73.5038 9.12895ZM90.7168 9.12895C89.4105 9.12895 88.6574 9.77443 88.3961 10.0664V9.80517C88.3961 9.59001 88.2271 9.42095 88.0119 9.42095H87.3664C87.1513 9.42095 86.9822 9.59001 86.9822 9.80517V17.1053C86.9822 17.3205 87.1513 17.4895 87.3664 17.4895H88.0119C88.2271 17.4895 88.3961 17.3205 88.3961 17.1053V11.6648C88.3961 11.6648 89.0724 10.5275 90.6246 10.5275C90.9012 10.5275 91.1625 10.589 91.4238 10.6966C91.6236 10.7734 91.808 10.7734 91.9156 10.5121L92.1768 9.82054C92.3766 9.23653 91.3469 9.12895 90.7168 9.12895ZM110.25 9.23652C109.006 9.23652 107.991 9.88201 107.392 10.8656C106.823 9.80517 105.747 9.23652 104.426 9.23652C103.242 9.23652 102.52 9.80517 102.213 10.1125C102.213 10.1125 102.044 10.2816 102.044 10.0203V9.82054C102.044 9.62074 101.859 9.43632 101.659 9.43632H101.029C100.829 9.43632 100.645 9.62074 100.645 9.82054V17.1207C100.645 17.3205 100.829 17.5049 101.029 17.5049H101.659C101.859 17.5049 102.044 17.3205 102.044 17.1207V12.7099C102.044 11.2037 103.165 10.7734 103.888 10.6351C104.041 10.6043 104.18 10.6043 104.333 10.6043C105.455 10.6043 106.454 11.342 106.454 12.8789V17.1207C106.454 17.3205 106.639 17.5049 106.839 17.5049H107.484C107.684 17.5049 107.868 17.3205 107.868 17.1207V12.7099C107.868 11.2037 108.99 10.7734 109.713 10.6351C109.866 10.6043 110.005 10.6043 110.158 10.6043C111.28 10.6043 112.279 11.342 112.279 12.8789V17.1207C112.279 17.3205 112.464 17.5049 112.663 17.5049H113.309C113.509 17.5049 113.693 17.3205 113.693 17.1207V12.8789C113.678 10.5121 112.264 9.25189 110.25 9.23652Z" fill="#212121"/>
</svg>
