<svg width="144" height="25" style="width:250px; height:43px;" viewBox="0 0 144 25" fill="none" xmlns="http://www.w3.org/2000/svg">
<path d="M0 0.0144329C4.05388 0.0196068 8.10936 -0.0400058 12.1613 0.0509878C15.2847 0.121173 17.7319 2.19974 18.2587 5.03887C18.855 8.25278 17.153 10.997 14.5272 11.7334C14.4605 11.752 14.4062 11.8127 14.3166 11.874C16.8194 12.5759 18.3133 14.199 18.7339 16.6306C19.4275 20.6426 17.1689 23.9393 12.9016 24.4058C11.9552 24.509 10.9942 24.5064 10.0398 24.5113C6.69328 24.5287 3.34658 24.5281 0.000114739 24.5344L0 0.0144329ZM5.38936 19.8532C5.45893 19.8766 5.52839 19.9203 5.59762 19.9203C7.27739 19.923 8.96016 19.9814 10.6363 19.9036C12.3707 19.8229 13.4021 18.7786 13.448 17.2395C13.4942 15.6932 12.5416 14.5779 10.843 14.3781C9.76928 14.2518 8.67258 14.3098 7.5861 14.2948C6.86617 14.285 6.14591 14.293 5.38936 14.293V19.8532V19.8532ZM5.35263 9.7305C6.91852 9.7305 8.40532 9.73308 9.89212 9.72825C10.1782 9.72723 10.4708 9.7296 10.7491 9.67471C11.799 9.4682 12.5896 8.9408 12.8646 7.86867C13.303 6.15936 12.191 4.68266 10.3859 4.59504C9.54656 4.55444 8.7038 4.58379 7.86265 4.58301C7.04687 4.58199 6.23086 4.58278 5.38971 4.58278C5.37295 4.75982 5.35401 4.8678 5.35389 4.97577C5.35194 6.52851 5.35263 8.08125 5.35263 9.7305ZM96.663 24.9842C96.0292 24.8688 95.3889 24.7803 94.7629 24.6332C89.8615 23.4822 87.364 19.3489 87.7922 14.7818C88.1509 10.9577 90.1185 8.16201 93.8662 6.86774C99.0984 5.06069 105.166 7.50042 106.061 14.3213C106.18 15.2225 106.174 16.1393 106.23 17.1298H92.718C93.0313 18.8102 93.8962 19.989 95.4043 20.6156C97.8551 21.634 100.151 21.1264 102.316 19.7614C102.444 19.6807 102.562 19.5849 102.686 19.4982C102.698 19.4896 102.722 19.4971 102.809 19.4971C103.471 20.4521 104.155 21.4384 104.923 22.5467C104.226 22.9727 103.583 23.4344 102.881 23.7802C101.589 24.4162 100.2 24.7534 98.7567 24.8712C98.5923 24.8846 98.4321 24.9453 98.27 24.9841L96.663 24.9842V24.9842ZM101.566 13.9021C101.66 11.7 99.5188 10.0182 96.8074 10.123C94.552 10.2102 92.5471 12.0815 92.7878 13.9021H101.566ZM116.065 24.9842C115.285 24.8305 114.492 24.7218 113.727 24.5151C110.074 23.5278 107.554 20.5013 107.223 16.8022C106.91 13.3131 107.942 10.3561 110.801 8.15492C115.133 4.81943 123.647 5.57606 125.338 13.468C125.46 14.0334 125.531 14.6139 125.567 15.1909C125.606 15.8036 125.576 16.4207 125.576 17.1294H112.152C112.269 18.116 112.66 18.9091 113.309 19.5652C114.794 21.0666 116.646 21.3491 118.648 21.0049C119.924 20.7855 121.102 20.3107 122.162 19.421L124.323 22.5247C123.76 22.8935 123.25 23.2836 122.69 23.5837C121.299 24.3296 119.793 24.7233 118.216 24.8678C118.032 24.8846 117.853 24.9443 117.672 24.984C117.136 24.9842 116.6 24.9842 116.065 24.9842V24.9842ZM112.184 13.899H120.972C121.084 11.7644 118.994 10.0689 116.366 10.1192C114.035 10.1636 112.016 11.9702 112.184 13.899V13.899ZM27.208 24.9842C26.6338 24.8691 26.0557 24.7693 25.4859 24.6361C21.9559 23.8119 19.8708 21.2231 19.8677 17.6646C19.8649 14.2536 19.8671 10.8426 19.8671 7.43159V6.82028H24.6385V7.47163C24.6385 10.6953 24.6482 13.9189 24.6341 17.1425C24.6276 18.6047 25.0842 19.8429 26.4983 20.4792C28.031 21.1688 29.6006 21.1436 31.0185 20.1541C32.0571 19.4297 32.3507 18.3207 32.3528 17.1291C32.3592 13.9242 32.3551 10.7193 32.3551 7.51448V6.8097H37.0746L37.0749 7.44149C37.0749 10.8151 37.0765 14.1886 37.0743 17.5622C37.0719 21.6331 34.4857 24.4314 30.3412 24.858C30.1366 24.8792 29.9363 24.9409 29.7339 24.9838C28.8918 24.9842 28.0498 24.9842 27.208 24.9842V24.9842ZM72.2607 24.4781V0.0309669H89.6161V2.40242C89.6161 2.92724 89.5802 3.45509 89.6262 3.97608C89.6719 4.49482 89.4593 4.59549 88.9721 4.59279C85.5477 4.57367 82.123 4.58267 78.6985 4.58267H77.6153V9.7305H78.2617C80.8445 9.7305 83.4274 9.745 86.0099 9.71857C86.532 9.71329 86.6541 9.87582 86.6422 10.3589C86.6102 11.647 86.6312 12.9363 86.6312 14.2889H77.5764V24.4781H72.2607ZM126.785 24.4685V23.8254C126.785 18.3543 126.785 12.8836 126.785 7.41247C126.785 6.6943 126.786 6.688 127.543 6.69487C130.161 6.71849 132.791 6.60916 135.395 6.80678C139.108 7.0882 142.013 8.72619 143.388 12.3162C144.786 15.9643 143.721 20.1277 140.881 22.4086C139.207 23.7524 137.238 24.4141 135.118 24.489C132.425 24.5845 129.726 24.5191 127.03 24.521C126.975 24.5212 126.92 24.4984 126.785 24.4685V24.4685ZM131.335 20.7164C132.25 20.7164 133.106 20.7166 133.963 20.7164C137.044 20.7154 138.984 19.0142 139.329 16.0105C139.577 13.8539 138.386 11.7088 136.49 10.9473C134.82 10.2767 133.075 10.6332 131.336 10.5384C131.335 13.9632 131.335 17.293 131.335 20.7164ZM46.6933 10.8135H38.6091V6.80194H53.224C53.224 7.5588 53.1852 8.31936 53.2354 9.07453C53.2815 9.77065 53.0654 10.3084 52.6168 10.8549C50.1861 13.8185 47.7938 16.8118 45.3889 19.7955C45.2599 19.9555 45.1372 20.1204 44.9361 20.3805H53.321V24.4691H38.5648C38.5648 23.3523 38.548 22.236 38.5806 21.1209C38.5862 20.9294 38.7825 20.7299 38.9209 20.5575C41.3881 17.4789 43.8602 14.4042 46.3298 11.3274C46.4326 11.1991 46.5203 11.059 46.6933 10.8135V10.8135ZM54.627 10.818C54.627 9.55211 54.6259 8.39169 54.6287 7.23115C54.629 7.10316 54.6505 6.97516 54.6659 6.80914H69.2356C69.2356 7.88768 69.2477 8.9489 69.2229 10.0093C69.2191 10.1692 69.0581 10.3375 68.943 10.4809C66.4342 13.6001 63.9215 16.7162 61.4109 19.8339C61.2869 19.9879 61.1762 20.1523 60.9831 20.4158H61.7145C64.086 20.4158 66.4577 20.4256 68.8293 20.4073C69.27 20.4041 69.4345 20.5101 69.4216 20.9702C69.3893 22.1274 69.4109 23.2863 69.4109 24.4793H54.6412C54.6412 23.3236 54.6318 22.187 54.6532 21.0511C54.6557 20.9088 54.8083 20.7601 54.9122 20.6305C57.3212 17.6251 59.7334 14.6222 62.1447 11.6184C62.3288 11.3888 62.5091 11.1562 62.7754 10.8179L54.627 10.818V10.818Z" fill="black"/>
</svg>
