<svg width="50" height="50" style="width:150px; height:150px;" viewBox="0 0 50 50" fill="none" xmlns="http://www.w3.org/2000/svg">
<path d="M39.1894 0H10.6572C4.79524 0 0 4.79525 0 10.6572V39.1296C0 45.0514 4.79524 49.8466 10.6572 49.8466H39.1296C45.0514 49.8466 49.8466 45.0514 49.8466 39.1894V10.6572C49.8466 4.79525 45.0514 0 39.1894 0Z" fill="black"/>
<path d="M4.85494 13.4985V15.0537C5.85187 15.0537 6.65939 15.1734 7.15785 15.3628C7.65632 15.5522 7.96537 15.8613 8.09497 16.2301C8.22457 16.599 8.28439 17.0975 8.28439 17.7853V32.51C8.28439 33.507 8.09497 34.2547 7.65632 34.6235C7.21767 34.9924 6.28055 35.2416 4.84497 35.2416V36.8567H25.8005L25.9899 29.2102H24.3649C24.1157 31.0146 23.6172 32.3206 22.9293 33.1281C22.2414 33.9356 21.4937 34.4939 20.8059 34.6833C20.0582 34.8728 19.3105 34.9924 18.5029 34.9924H16.6287C15.7514 34.9924 15.1333 34.9326 14.6947 34.803C14.256 34.6833 13.8871 34.4939 13.6977 34.1849C13.5083 33.8758 13.3189 33.497 13.3189 33.1281C13.2591 32.6895 13.2591 32.0116 13.2591 31.1442V25.6212H15.6916C16.4991 25.6212 17.1272 25.681 17.496 25.8106C17.8749 25.9303 18.1839 26.2493 18.3733 26.6182C18.5628 27.0568 18.6824 27.6749 18.7522 28.5422H20.3772V20.7761H18.6924C18.6325 21.6435 18.5029 22.2715 18.3833 22.7002C18.2537 23.0691 17.9447 23.3881 17.506 23.5077C17.1272 23.6274 16.5091 23.6972 15.7016 23.6972H13.3289V15.4326H17.7552C18.9416 15.4326 19.8089 15.4924 20.3772 15.622C20.9355 15.7416 21.5037 16.1205 21.9324 16.6787C22.4309 17.237 22.8097 18.234 23.1786 19.5998H25.0528C25.1126 18.1741 25.4316 17.6159 25.8603 16.928C26.3588 16.2401 26.917 15.8114 27.5451 15.622C28.1732 15.4326 28.9807 15.3728 29.9776 15.3728H31.6026V32.52C31.6026 33.5169 31.4132 34.2646 30.9746 34.6335C30.5359 35.0721 30.2867 35.2516 28.8511 35.2516V36.8666H39.3289V35.2516C38.3319 35.2516 38.2721 35.132 37.7736 34.9425C37.2752 34.7531 36.9661 34.4441 36.7767 34.0752C36.6471 33.7063 36.5873 33.2079 36.5873 32.52V15.4226H38.7805C39.4684 15.4226 40.0865 15.4824 40.7146 15.6718C41.2729 15.8613 41.8411 16.2301 42.2698 16.9778C42.7683 17.6657 43.0773 18.1542 43.2069 19.6496H44.8319V13.4985H24.2453H4.85494V13.4985Z" fill="white"/>
</svg>
