<svg width="169" height="24" style="width:250px; height:36px;" viewBox="0 0 169 24" fill="none" xmlns="http://www.w3.org/2000/svg">
<path d="M28.5073 22.4246L22.499 0.588006H20.7519L14.3602 22.4246H12.1444V23.2827H17.2578V22.4246H15.2125L17.1726 15.7321H22.4565L24.2462 22.4246H22.3286V23.2827H30.4249V22.4246C30.4249 22.4246 28.5074 22.4246 28.5073 22.4246ZM17.3856 14.874L19.8998 6.25096L22.2008 14.874C22.2007 14.874 17.3856 14.874 17.3856 14.874ZM0 0.588006V1.44605H2.00275V22.4246H0V23.2827H8.52237V22.4246H6.26391V12.0855H8.39448C9.92852 12.0855 10.5251 13.8015 10.5677 15.7321H11.42V7.58089H10.5677C10.5251 9.55436 9.88593 11.2275 8.39448 11.2275H6.26391V1.44605H10.6103C12.7409 1.44605 14.0193 4.0201 14.0193 7.06606H14.8715V0.588006H0ZM31.9589 9.33979C32.2998 10.7555 33.2799 11.828 34.5582 12.4716C35.4531 12.9435 36.3479 13.2438 37.328 13.6299C38.2228 14.0159 39.4586 14.3592 40.3108 14.8311C41.2482 15.3459 41.6318 15.9894 41.9727 16.8474C42.3562 17.7484 42.3988 18.5635 42.1857 19.5502C41.8874 20.9659 41.2483 22.2101 39.9699 22.8965L39.8421 22.9394C39.2029 23.1967 38.5211 23.2826 37.8393 23.1967C37.328 23.1109 36.774 22.8964 36.2627 22.5961C35.7088 22.2529 35.1974 21.9097 34.8139 21.4807C33.2373 19.8076 32.8964 17.5767 32.5555 16.0752H31.7459V23.2396H32.5982V22.5961C32.5982 22.3387 32.8965 22.1671 33.1947 22.3387C34.8992 23.4113 38.0525 24.0977 40.3535 23.5399C42.0154 23.0251 43.3789 22.3387 44.359 20.7514C45.2113 19.3356 45.7226 17.8341 45.68 16.118C45.6374 13.7155 44.6147 11.9567 42.4415 10.7983C40.9927 10.0261 39.203 9.68286 37.7542 8.99646C36.7742 8.52456 35.8793 7.92391 35.4106 6.93724C34.6436 5.2641 34.814 2.6471 36.4333 1.3601C37.2855 0.673696 38.4787 0.673696 39.5013 0.759513C43.4216 1.44592 43.5921 5.90763 43.6347 7.70946H44.4869V1.27441L42.612 0.802516C40.7797 0.373496 38.7343 -0.355787 36.7741 0.201927C34.6436 0.845457 33.1095 2.0467 32.2999 4.23461C31.5328 5.99351 31.5328 7.62377 31.9589 9.33979Z" fill="black"/>
<path d="M46.6174 0.673828V1.5318H48.4924V22.4246H46.6174V23.2827H48.4924H52.7536H54.6711V22.4246H52.7536V12.3858H58.6766V22.4246H56.8017V23.2827H58.6766H62.9804H64.8553V22.4246H62.9804V1.5318H64.8553V0.673828H62.9804H58.6766H56.8017V1.5318H58.6766V11.5278H52.7536V1.5318H54.6711V0.673828H52.7536H48.4924H46.6174Z" fill="black"/>
<path d="M66.2188 0.673828V1.5318H68.4346V22.4246H66.2188V23.2827H68.4346H72.7384H74.6133V22.4246H72.7384V1.5318H74.6133V0.673828H72.7384H68.4346H66.2188Z" fill="black"/>
<path d="M112.964 0.588013V1.44605H114.882V22.4247H112.964V23.2827H114.882H119.143H121.018V22.4247H119.143V1.44605H121.018V0.588013H119.143H114.882H112.964Z" fill="black"/>
<path d="M131.415 23.6259C131.458 23.583 131.5 23.583 131.415 23.6259V23.6259ZM137.082 1.44605V7.06606H137.935C137.935 4.02011 139.213 1.44605 141.344 1.44605H142.878V22.4246H140.662V23.2827H149.397V22.4246H147.181V1.44605H148.716C150.846 1.44605 152.124 4.02011 152.124 7.06606H152.977V0.588013H136.997V1.44605H137.082V1.44605Z" fill="black"/>
<path d="M94.8967 0.716706V1.57475H96.6864V22.3818H95.1098V23.2398H96.8142H97.6665H99.3284V22.3818H97.6665V3.29076L107.851 23.2827H110.152V1.44605H111.643V0.588013H109.981H109.129H107.425V1.44605H109.129V17.4052L100.649 0.716706H96.8142H94.8967Z" fill="black"/>
<path d="M84.8402 0.330619C79.8121 0.330619 75.7639 4.06304 75.7639 11.9139C75.7639 19.6361 79.8121 23.4972 84.8402 23.4972C89.8684 23.4972 93.9166 19.8506 93.9166 11.9139C93.9166 4.0201 89.8258 0.330619 84.8402 0.330619ZM84.8402 22.8537C82.3261 22.8537 80.2808 19.2071 80.2808 11.9139C80.2808 4.492 82.3262 0.974149 84.8402 0.974149C87.3543 0.974149 89.3997 4.44912 89.3997 11.9139C89.3997 19.4216 87.3544 22.8537 84.8402 22.8537ZM167.124 22.4246L161.073 0.630883H159.326L152.934 22.4246H150.718V23.2827H155.832V22.4246H153.786L155.746 15.7321H161.03L162.82 22.4246H160.902V23.2827H168.999V22.4246H167.124ZM156.002 14.874L158.516 6.25096L160.817 14.874H156.002ZM122.85 9.33979C123.191 10.7555 124.171 11.828 125.449 12.4716C126.344 12.9435 127.239 13.2438 128.219 13.6299C129.114 14.0159 130.35 14.3592 131.202 14.8311C132.139 15.3459 132.523 15.9894 132.864 16.8474C133.247 17.7484 133.29 18.5635 133.077 19.5502C132.779 20.9659 132.139 22.2101 130.861 22.8965L130.733 22.9394C130.094 23.1967 129.412 23.2826 128.73 23.1967C128.219 23.1109 127.665 22.8964 127.154 22.5961C126.6 22.2529 126.088 21.9097 125.705 21.4807C124.128 19.8076 123.787 17.5767 123.447 16.0752H122.637V23.2396H123.489V22.5961C123.489 22.3387 123.788 22.1671 124.086 22.3387C125.79 23.4113 128.944 24.0977 131.245 23.5399C132.906 23.0251 134.27 22.3387 135.25 20.7514C136.102 19.3356 136.614 17.8341 136.571 16.118C136.528 13.7155 135.506 11.9567 133.333 10.7983C131.884 10.0261 130.094 9.68286 128.645 8.99646C127.665 8.52456 126.77 7.92391 126.302 6.93724C125.535 5.2641 125.705 2.6471 127.324 1.3601C128.177 0.673696 129.37 0.673696 130.392 0.759513C134.313 1.44592 134.483 5.90763 134.526 7.70946H135.378V1.27441L133.503 0.802516C131.671 0.373496 129.625 -0.355787 127.665 0.201927C125.535 0.845457 124.001 2.0467 123.191 4.23461C122.467 5.99351 122.467 7.62377 122.85 9.33979Z" fill="black"/>
</svg>
