<svg width="158" height="24" style="width:250px; height:38px;" viewBox="0 0 158 24" fill="none" xmlns="http://www.w3.org/2000/svg">
<path d="M76.195 21.7196C72.5868 21.7196 70.6114 18.1877 70.6114 14.3221C70.6114 14.1275 70.6114 13.9328 70.6378 13.7381H82.1474C82.1474 13.7381 82.1474 13.1263 82.1474 12.9038C82.1474 11.2908 80.9885 7.64774 75.721 7.64774C70.4534 7.64774 67.767 12.0695 67.767 15.8517C67.767 20.4403 71.1119 23.8053 75.3522 23.8053C81.4889 23.8053 83.0692 17.6315 83.0692 17.6315L82.3317 17.2978C82.3317 17.27 80.4354 21.7196 76.195 21.7196ZM75.1942 8.45423C77.7226 8.45423 79.3029 9.67787 79.3029 11.6246C79.3029 12.4589 78.5127 12.7926 78.0387 12.7926C77.828 12.7926 72.0073 12.7926 70.6378 12.7926C70.6641 10.095 73.0345 8.45423 75.1942 8.45423ZM47.724 20.8019V10.8181V7.45307L42.8778 8.89919V9.73349C42.8778 9.73349 44.7478 9.87254 44.7478 11.4021V20.8019C44.7478 20.8019 44.8531 22.7207 42.7461 22.7207V23.5272H46.012H46.4334H49.6993V22.7207C47.882 22.7207 47.724 21.4971 47.724 20.8019ZM26.1007 20.9409C26.1007 18.7439 26.1007 13.6269 26.1007 11.9305C26.1007 9.78911 24.8891 7.61993 21.755 7.61993C17.6726 7.61993 15.2759 11.5968 15.2759 11.5968L15.3022 7.06373L10.1664 8.87138V9.73349C10.1664 9.73349 12.2997 9.70568 12.2997 11.3465V20.7462C12.2997 21.4137 12.4051 22.7207 10.298 22.7207V23.5272H13.5639H13.9853H17.2512V22.7207C15.4339 22.7207 15.2759 21.4693 15.2495 20.7462V13.321C15.2495 13.321 17.1195 9.73349 20.043 9.73349C22.071 9.73349 23.0455 10.8181 23.0455 12.9038C23.0455 14.489 23.0455 18.3268 23.0455 20.635C23.0455 21.3024 23.1509 22.6929 21.0438 22.6929V23.4994H24.3887H24.7311H28.076V22.6929C26.285 22.7207 26.127 21.664 26.1007 20.9409ZM106.404 2.72537V1.89107H103.455H101.769H100.083H97.1335V2.72537C100.11 2.72537 100.083 4.00463 100.083 4.67207V11.6246H88.4684V4.4774C88.5211 3.78215 88.9162 2.69756 91.4182 2.69756V1.86326H88.4684H86.7828H85.0972H82.1474V2.69756C85.1235 2.69756 85.0972 3.80996 85.0972 4.4774V20.8297C85.0972 21.4971 85.1235 22.8876 82.1474 22.8876V23.5272H86.7828H91.4182V22.8876C88.4421 22.8876 88.4684 21.4693 88.4684 20.8297V12.4589H100.083V20.635C100.083 21.3024 100.11 22.6929 97.1335 22.6929V23.4994H101.769H106.404V22.6929C103.428 22.6929 103.455 21.2746 103.455 20.635V4.67207C103.507 3.94901 103.902 2.72537 106.404 2.72537ZM35.793 14.0162C34.3971 13.6269 31.1048 12.9316 31.1048 10.5956C31.1048 8.9548 33.0012 8.39861 34.318 8.39861C36.2144 8.39861 37.7946 8.87138 39.77 13.321C39.9807 13.321 40.5601 13.321 40.5601 13.321L39.6909 7.14716H38.9008C38.9008 7.14716 38.7955 8.14832 37.7156 8.14832C36.8991 8.14832 36.3197 7.56431 34.4761 7.56431C32.7378 7.56431 29.0242 8.20394 29.0242 12.0973C29.0242 15.9907 33.6333 16.825 34.8711 17.1309C36.1354 17.4368 39.6383 17.993 39.6383 20.3847C39.6383 21.4693 39.0062 22.9154 35.8193 22.9154C31.3156 22.9154 29.4456 17.3534 29.4456 17.3534H28.6554L29.867 24H30.6571C30.6571 24 30.4991 23.1379 31.5789 23.1379C32.6588 23.1379 33.3699 23.7219 35.7403 23.7219C38.3477 23.7219 41.5873 22.4426 41.5873 18.8273C41.6399 15.2399 37.1889 14.4056 35.793 14.0162ZM46.1173 1.47392C47.1445 1.47392 47.9873 2.30823 47.9873 3.3372C47.9873 4.36617 47.1445 5.20046 46.1173 5.20046C45.0902 5.20046 44.2474 4.36617 44.2474 3.3372C44.2474 2.30823 45.0902 1.47392 46.1173 1.47392ZM65.5546 19.1889V3.47625V0.0834265L60.4451 1.52955V2.36385C60.4451 2.36385 62.5784 2.5029 62.5784 4.03245V9.14948C62.1043 8.67671 60.7611 7.61993 57.864 7.61993C54.1504 7.61993 50.1734 10.4565 50.1734 16.3244C50.1734 20.4959 53.1495 23.7775 56.4681 23.7775C60.3134 23.7775 62.5521 19.9954 62.5521 19.9954L62.5784 23.9722L67.5563 22.4426V21.5805C67.5563 21.5805 67.4509 21.5527 67.2139 21.5527C66.6081 21.5527 65.5546 20.774 65.5546 19.1889ZM58.022 21.3859C57.2055 21.3859 53.4656 21.2468 53.4656 15.0452C53.4656 10.8181 55.0458 8.45423 57.8376 8.45423C60.7875 8.45423 62.157 11.0127 62.6048 12.0139V18.299C62.6048 18.3268 60.9982 21.3859 58.022 21.3859ZM113.647 7.70336C108.485 7.70336 105.693 11.9583 105.693 16.241C105.693 20.0232 108.116 23.8331 114.174 23.8331C118.941 23.8331 122.312 20.051 122.312 15.4623C122.312 10.8737 119.652 7.70336 113.647 7.70336ZM114.095 22.971C110.539 22.971 109.117 17.8818 109.117 14.2665C109.117 10.2063 110.75 8.56547 113.779 8.56547C116.992 8.56547 118.862 13.0985 118.862 17.4368C118.888 21.6362 116.729 22.971 114.095 22.971ZM131.267 7.70336C126.105 7.70336 123.313 11.9583 123.313 16.241C123.313 20.0232 125.736 23.8331 131.794 23.8331C136.561 23.8331 139.932 20.051 139.932 15.4623C139.906 10.8737 137.246 7.70336 131.267 7.70336ZM131.689 22.971C128.133 22.971 126.711 17.8818 126.711 14.2665C126.711 10.2063 128.344 8.56547 131.373 8.56547C134.586 8.56547 136.456 13.0985 136.456 17.4368C136.482 21.6362 134.322 22.971 131.689 22.971ZM157.289 22.7207C156.446 22.7207 155.577 21.5805 154.866 20.1066C154.181 18.6883 152.732 13.8215 149.467 13.8215C148.913 13.8215 148.202 13.9328 148.202 13.9328L152.917 10.095C152.917 10.095 154.708 8.59328 156.578 8.59328C156.788 8.59328 157.105 8.59328 157.105 8.59328L157.131 7.75898L150.151 7.73117V8.56547C150.151 8.56547 150.257 8.56547 150.494 8.56547C151.284 8.56547 151.653 8.81575 151.653 9.37195C151.653 10.0116 150.546 10.8737 150.546 10.8737L145.042 15.518V10.7625V3.39281V0L139.932 1.44611V2.28041C139.932 2.28041 142.066 2.41946 142.066 3.94901V19.5782V20.6072C142.066 21.2746 142.171 22.6651 140.064 22.6651V23.4716H143.33H143.751H147.017V22.6651C145.2 22.6651 145.042 21.6083 145.016 20.8853V16.6304L146.359 15.4623C146.359 15.4623 147.044 14.8783 147.939 14.8783C148.966 14.8783 149.783 15.8517 150.573 17.2978C151.31 18.6883 151.31 18.6605 153.233 23.416H158V22.6651C158 22.7207 157.631 22.7207 157.289 22.7207ZM6.29472 20.8297C6.29472 20.051 6.29472 4.69988 6.29472 4.69988C6.29472 3.19814 7.55893 2.75319 9.13919 2.75319C9.19186 2.75319 9.27088 2.75319 9.27088 2.75319V1.91889H0V2.75319C0 2.75319 0.0790132 2.75319 0.131689 2.75319C1.71195 2.75319 2.97616 3.19814 2.97616 4.69988C2.97616 4.69988 2.97616 20.0788 2.97616 20.8297C2.97616 22.0533 2.05434 22.7207 0.131689 22.7207C0.0790132 22.7207 0 22.7207 0 22.7207V23.5272H9.27088V22.7207C9.27088 22.7207 9.19186 22.7207 9.13919 22.7207C7.24287 22.7207 6.29472 22.0533 6.29472 20.8297Z" fill="black"/>
</svg>
