<svg width="162" height="24" viewBox="0 0 162 24" fill="none" xmlns="http://www.w3.org/2000/svg">
<path fill-rule="evenodd" clip-rule="evenodd" d="M0 0.379027H4.02353V23.6215H0V0.379027ZM32.5986 15.2435L16.2532 0.0207402V23.621H20.1219V8.50036L36.4673 23.9803V0.379027H32.5986V15.2435ZM57.4651 10.675L53.636 9.31181C51.6627 8.63154 50.5401 7.94919 50.5401 6.24642C50.5401 4.35388 52.3206 3.44494 54.7185 3.44494C57.5036 3.44494 59.6708 4.46691 61.643 5.94361V1.89254C59.7482 0.681833 57.3108 0 54.6411 0C50.2694 0 46.633 2.2332 46.633 6.3216C46.633 10.1445 49.0314 11.8105 52.2037 12.946L55.6467 14.1578C57.7744 14.9526 58.9738 15.6723 58.9738 17.4886C58.9738 19.5704 57.078 20.5172 54.3698 20.5172C51.5852 20.5172 48.9924 19.5336 46.8258 17.8293V21.9555C48.4899 23.0916 51.1975 24 54.3698 24C59.2067 24 62.8809 21.6522 62.8809 17.4129C62.8809 14.0442 61.1795 11.9997 57.4651 10.675ZM71.9452 0.379027H75.9682V23.6215H71.9452V0.379027ZM97.5092 0.379545H88.3981V23.6215H97.5092C104.512 23.6215 109.038 19.0789 109.038 11.9997C109.038 4.92164 104.511 0.379545 97.5092 0.379545ZM97.3543 20.1019H92.4221V3.86182H97.3543C102.343 3.86182 105.014 7.00343 105.014 11.9997C105.014 16.9582 102.344 20.1019 97.3543 20.1019ZM118.169 23.6215H132.579V20.1019H122.115V12.8988H131.495V9.45389H122.115V3.8613H132.579V0.379027H118.169V23.6215ZM153.46 14.0442C157.213 13.4764 158.982 11.2427 158.982 7.34357C158.982 2.80148 155.81 0.379027 150.897 0.379027H142.28V23.6215H146.303V14.1956H149.166L157.435 23.6215H162L153.46 14.0442ZM146.303 10.9021V3.7856H150.819C153.488 3.7856 154.998 5.18608 154.998 7.34357C154.998 9.50159 153.488 10.9021 150.819 10.9021H146.303Z" fill="#111111"/>
</svg>
