<svg width="131" style="width:250px; height:107px;" height="56" viewBox="0 0 131 56" fill="none" xmlns="http://www.w3.org/2000/svg">
<path d="M20.408 50.6623C20.408 53.1036 21.2697 54.0595 22.5872 54.0595C25.8842 54.0595 31.1369 46.4435 30.9374 38.4476C35.9367 33.2282 41.9296 25.052 41.9296 18.5033C41.9296 16.9181 41.4754 15.5832 39.5769 15.5832C36.6744 15.5832 32.5268 20.5342 29.896 25.4504C27.3589 30.5437 24.9856 36.3529 21.8351 44.3259C21.0989 46.3257 20.408 48.7479 20.408 50.6623V50.6623ZM91.7224 39.7931V43.8965C91.7224 43.8965 93.7776 45.3661 97.7874 45.3661C103.874 45.3661 106.547 42.0054 106.547 38.3379C106.547 30.3897 95.7336 32.2896 95.7336 27.0154C95.7336 25.0333 97.3283 23.5991 100.005 23.5991C103.131 23.5991 105.434 25.25 105.434 25.25V21.452C105.434 21.452 103.293 20.2783 100.208 20.2783C95.0034 20.2783 91.761 23.4948 91.761 27.359C91.761 35.217 102.541 33.6798 102.541 38.8007C102.541 41.1542 100.586 42.007 98.0574 42.007C94.438 42.007 91.7224 39.7931 91.7224 39.7931V39.7931ZM131 44.8024H127.129V31.1606C127.129 26.0839 125.257 23.5455 121.512 23.5455C119.576 23.5455 117.975 24.2658 116.708 25.7062C115.442 27.1467 114.808 28.9649 114.808 31.1606V44.8024H110.937V20.8825H114.808V24.8536H114.903C116.728 21.8325 119.372 20.3219 122.833 20.3219C125.477 20.3219 127.499 21.1668 128.899 22.8564C130.3 24.5461 131 26.9871 131 30.1795L131 44.8024ZM87.4966 44.8024H83.6257V31.0672C83.6257 28.4198 83.2126 26.5044 82.3866 25.3208C81.5604 24.1373 80.1718 23.5455 78.2206 23.5455C76.5684 23.5455 75.164 24.293 74.0075 25.788C72.8509 27.283 72.2727 29.0739 72.2727 31.1606V44.8024H68.4018V30.6C68.4018 25.897 66.5686 23.5455 62.9023 23.5455C61.2028 23.5455 59.8024 24.2502 58.7009 25.6595C57.5994 27.0689 57.0487 28.9026 57.0487 31.1606V44.8024H53.1778V20.8825H57.0487V24.6667H57.1431C58.8582 21.7702 61.3601 20.3219 64.6488 20.3219C66.3011 20.3219 67.7408 20.7775 68.9682 21.6884C70.1955 22.5995 71.0374 23.7947 71.4937 25.2741C73.2875 21.9727 75.9626 20.3219 79.5188 20.3219C84.8373 20.3219 87.4966 23.5689 87.4966 30.0627L87.4966 44.8024ZM6.12268 56C2.81728 56 0 53.9468 0 49.2928C0 42.1082 6.24728 36.6521 9.08174 35.1091C9.08174 35.1091 13.0475 37.37 17.1617 38.8249C8.98712 33.7063 3.76361 24.3803 3.76361 14.0292C3.76361 4.35547 8.92303 0 13.5813 0C17.3286 0 26.2127 4.07968 26.2127 19.7343C26.2127 36.5793 17.3312 56 6.12268 56V56Z" fill="black"/>
</svg>
