<svg width="163" style="width:250px; height:34px;" height="22" viewBox="0 0 163 22" fill="none" xmlns="http://www.w3.org/2000/svg">
<path d="M91.7592 0.502686V0.711685H93.7602L88.6719 15.6365L82.6458 0.712787H84.6285V0.502686H76.5515V0.711685H78.6766L87.02 21.3411L94.192 0.712787H96.1176V0.502686H91.7592ZM129.485 0.502686H137.586V0.712787H135.438V16.6199C135.438 19.1114 138.276 20.6283 140.759 20.6283C143.431 20.6283 145.682 18.9464 145.682 16.4769V0.713886H143.141V0.502686H162.195V7.88259H162.036C161.796 5.93009 161.382 3.92479 159.896 2.40129C158.392 0.862386 156.35 0.712787 154.251 0.712787H151.984V10.2014C152.45 10.2454 152.923 10.2762 153.395 10.2762C156.243 10.2762 156.981 8.50519 157.106 6.31289H157.313V14.6377H157.106C156.75 12.6489 155.778 10.516 153.196 10.516C152.789 10.516 152.392 10.5391 151.984 10.5688V20.7185H155.379C157.139 20.7185 158.891 20.0277 160.136 18.9167C161.207 17.9689 161.926 16.744 162.195 15.411C162.336 14.6685 162.401 13.9106 162.444 13.1593H162.626V20.9286H146.281V20.7185H148.181V0.712787H146.021V16.5363C146.021 19.8099 142.585 21.2586 139.364 21.2586C135.719 21.2586 131.7 19.6603 131.7 15.8906V0.712787H129.486V0.502686H129.485Z" fill="black"/>
<path d="M107.294 10.7942C107.294 7.81323 106.114 0.367326 101.657 0.367326C97.1834 0.367326 96.0205 7.80663 96.0205 10.7953C96.0205 13.7818 97.1919 21.2288 101.657 21.2288C106.116 21.2288 107.294 13.7741 107.294 10.7942V10.7942ZM101.642 21.5368C98.9593 21.5368 96.3939 20.1772 94.7347 18.3237C92.842 16.2139 91.9199 13.4892 91.9199 10.7942C91.9199 8.20373 92.7666 5.59893 94.5182 3.53423C96.2455 1.50913 98.8426 0.0593262 101.732 0.0593262C104.388 0.0593262 106.938 1.43433 108.573 3.26473C110.457 5.37453 111.395 8.10693 111.395 10.8019C111.395 13.3836 110.54 15.9884 108.797 18.0531C107.086 20.065 104.505 21.5368 101.642 21.5368Z" fill="black"/>
<path d="M75.6502 21.2554H69.0208L71.9037 9.45791C71.962 9.12131 72.0192 8.80231 72.0764 8.50421C72.1336 8.20721 72.1628 7.90031 72.1628 7.59011C72.1628 7.12151 72.0691 6.73871 71.883 6.44061C71.7228 6.16891 71.494 5.93524 71.2152 5.75861C70.9657 5.60694 70.6892 5.49531 70.3977 5.42861C70.1588 5.36983 69.913 5.33697 69.6655 5.33071C69.1485 5.33071 68.6607 5.43521 68.2021 5.64201C67.7423 5.85101 67.3409 6.10951 66.9954 6.42081C66.4505 6.91471 66.0271 7.53181 65.7255 8.27101C65.4184 9.02711 65.1665 9.8006 64.9713 10.5865L62.2587 21.2565H55.6292L60.6664 1.20351H67.3409L66.695 3.61801L67.707 2.70281C68.0938 2.35191 68.5463 2.03401 69.0633 1.74911C69.6272 1.44386 70.2264 1.19561 70.8502 1.00881C71.5241 0.80201 72.2917 0.697511 73.1529 0.697511C73.985 0.697511 74.7744 0.807509 75.5213 1.02861C76.267 1.24861 76.9202 1.58081 77.4797 2.02081C78.0393 2.46301 78.4772 3.00751 78.7935 3.65651C79.1097 4.30551 79.2679 5.05791 79.2679 5.91481C79.2679 6.27781 79.2314 6.64851 79.1596 7.02471C79.0866 7.40091 79.0234 7.77051 78.965 8.13461L75.6502 21.2554V21.2554ZM42.2814 7.31621C42.5405 6.87621 42.8775 6.46041 43.2935 6.07101C43.7236 5.6723 44.2259 5.34305 44.7788 5.09751C45.3529 4.83791 46.056 4.70811 46.8892 4.70811C47.7213 4.70811 48.4949 4.88961 49.2126 5.25261C49.6724 5.48691 50.0325 5.75311 50.2903 6.05121C50.5482 6.34931 50.7343 6.65511 50.8499 6.96641C50.9642 7.27771 51.036 7.56921 51.0652 7.84201C51.0932 8.11481 51.109 8.34251 51.109 8.52401H41.6355C41.807 8.16101 42.0224 7.75841 42.2814 7.31621V7.31621ZM36.7273 18.7452C37.5885 19.6659 38.7076 20.4128 40.0846 20.9837C40.3279 21.0838 40.5833 21.1729 40.8449 21.2554H49.468C49.4899 21.2488 49.5155 21.2444 49.5362 21.2367C50.7562 20.8341 51.7829 20.3347 52.6149 19.7374C53.4482 19.1401 54.1281 18.5054 54.6609 17.8289C55.1913 17.1546 55.6438 16.5452 56.0172 15.9996L50.4619 14.2088C50.2903 14.4684 50.075 14.7676 49.8172 15.1042C49.5581 15.4419 49.2211 15.7653 48.8051 16.0777C48.3377 16.4159 47.8143 16.6854 47.2542 16.8763C46.6374 17.0963 45.8991 17.2063 45.0366 17.2063C43.4577 17.2063 42.2669 16.6871 41.464 15.6487C41.1311 15.2353 40.9164 14.7539 40.8388 14.2473C40.767 13.7545 40.7317 13.1055 40.7317 12.3003H56.8772C56.9915 11.4211 57.0492 10.5367 57.05 9.65151C57.05 8.01801 56.7556 6.61551 56.1681 5.44841C55.5793 4.28021 54.8106 3.33311 53.8642 2.60491C52.9072 1.87436 51.793 1.33125 50.592 1.00991C49.3634 0.673472 48.0866 0.502967 46.8029 0.50391C44.5914 0.50391 42.6975 0.89221 41.1186 1.66991C39.5396 2.44981 38.2405 3.42331 37.2224 4.59151C36.2243 5.72423 35.4588 7.00955 34.9623 8.38651C34.4733 9.75051 34.23 11.0155 34.23 12.1837C34.23 13.3266 34.4307 14.475 34.8321 15.63C35.2335 16.785 35.8661 17.8234 36.7273 18.7441" fill="black"/>
<path d="M19.7194 7.31621C19.9785 6.87621 20.3155 6.46041 20.7315 6.07101C21.1616 5.6723 21.6639 5.34305 22.2167 5.09751C22.7909 4.83791 23.494 4.70811 24.3272 4.70811C25.1593 4.70811 25.9341 4.88961 26.6518 5.25261C27.1104 5.48691 27.4705 5.75311 27.7283 6.05121C27.9874 6.34931 28.1735 6.65511 28.2879 6.96641C28.4022 7.27771 28.474 7.56921 28.5032 7.84201C28.5312 8.11481 28.547 8.34251 28.547 8.52401H19.0735C19.2463 8.16101 19.4616 7.75841 19.7194 7.31621ZM14.1653 18.7452C15.0265 19.6659 16.1456 20.4128 17.5238 20.9837C17.7671 21.0838 18.0225 21.1729 18.2829 21.2554H26.906C26.9279 21.2488 26.9535 21.2444 26.9754 21.2367C28.1942 20.8341 29.2209 20.3347 30.0529 19.7374C30.8862 19.1401 31.5674 18.5054 32.0989 17.8289C32.6293 17.1546 33.0818 16.5452 33.4552 15.9996L27.9011 14.2088C27.7283 14.4684 27.513 14.7676 27.2552 15.1042C26.9961 15.4419 26.6591 15.7653 26.2431 16.0777C25.7761 16.4158 25.2531 16.6853 24.6934 16.8763C24.0754 17.0963 23.3359 17.2063 22.4758 17.2063C20.8969 17.2063 19.7048 16.6871 18.902 15.6487C18.5696 15.2352 18.3552 14.7538 18.278 14.2473C18.205 13.7545 18.1697 13.1055 18.1697 12.3003H34.3165C34.4307 11.4211 34.4884 10.5367 34.4892 9.65151C34.4892 8.01801 34.1936 6.61551 33.6061 5.44841C33.0173 4.28021 32.2498 3.33311 31.3022 2.60491C30.3452 1.87428 29.231 1.33116 28.03 1.00991C26.8014 0.673472 25.5246 0.502967 24.2409 0.50391C22.0306 0.50391 20.1355 0.892209 18.5578 1.66991C16.9776 2.44981 15.6797 3.42331 14.6604 4.59151C13.6623 5.72423 12.8968 7.00955 12.4003 8.38651C11.9113 9.75051 11.668 11.0155 11.668 12.1837C11.668 13.3266 11.8687 14.475 12.2713 15.63C12.6727 16.785 13.3053 17.8234 14.1653 18.7441" fill="black"/>
<path d="M0.474403 14.9865C0.416015 15.3506 0.351545 15.7081 0.279776 16.0579C0.208007 16.4088 0.172731 16.7652 0.172731 17.1282C0.172731 18.2447 0.436694 19.1082 0.968269 19.7176C1.49984 20.3281 2.15306 20.7758 2.9267 21.0618C3.13471 21.1388 3.34637 21.1993 3.55924 21.2554H9.56104C9.67417 21.2422 9.78852 21.2312 9.90164 21.2169L11.0645 16.5837H9.77392C9.45765 16.5837 9.15719 16.5639 8.87012 16.5254C8.59157 16.4895 8.32201 16.4102 8.07337 16.2911C7.82612 16.1719 7.62371 15.9889 7.49192 15.7653C7.34838 15.5321 7.27661 15.2076 7.27661 14.7929C7.27661 14.585 7.3131 14.3199 7.38487 13.9943C7.45543 13.6698 7.5199 13.3651 7.57828 13.0791L9.68755 4.70811H13.5193L14.4243 0.69751H0.903798L0 4.70811H3.01428L0.473187 14.9865H0.474403Z" fill="black"/>
<path d="M127.684 0.1419V7.3117H127.501C127.161 5.8993 126.679 4.5265 125.841 3.2802C124.845 1.8238 123.26 0.187 121.192 0.187C116.444 0.187 116.012 7.8815 116.012 10.8174C116.012 13.4453 116.244 16.1546 117.299 18.6164C118.037 20.3434 119.108 21.1915 121.093 21.1915C122.67 21.1915 124.347 20.471 125.185 19.2324C125.4 18.909 125.416 18.5493 125.416 18.1808V12.6401H123.341V12.4234H130.938V12.6412H129.162V20.9286H129.003C128.555 20.2532 127.849 19.8099 126.944 19.8099C126.29 19.8099 125.65 20.02 125.077 20.3049L124.562 20.5612C123.399 21.0265 122.288 21.3642 121.001 21.3642C115.107 21.3642 111.97 15.6816 111.97 10.9681C111.97 7.5218 113.422 3.8346 116.51 1.6808C117.896 0.7128 119.573 0 121.358 0C122.055 0 122.745 0.194701 123.392 0.426801L123.865 0.5918C124.404 0.7722 124.994 0.946001 125.574 0.946001C126.297 0.946001 126.944 0.517 127.501 0.143H127.684V0.1419Z" fill="black"/>
</svg>
